<mxfile host="app.diagrams.net" modified="2023-07-30T19:17:17.520Z" agent="Mozilla/5.0 (Windows NT 10.0; Win64; x64) AppleWebKit/537.36 (KHTML, like Gecko) Chrome/115.0.0.0 Safari/537.36 Edg/115.0.1901.188" etag="cH7Icrg3nwWT6ryvx2fG" version="21.6.6" type="device">
  <diagram id="SQzT1PZ-4JYBl5l8QcrB" name="Page-3">
    <mxGraphModel dx="416" dy="-354" grid="1" gridSize="10" guides="1" tooltips="1" connect="1" arrows="1" fold="1" page="1" pageScale="1" pageWidth="850" pageHeight="1100" math="0" shadow="0">
      <root>
        <mxCell id="0" />
        <mxCell id="1" parent="0" />
        <mxCell id="4dmCjVElnuUW6X6LacNj-25" value="Administrador / Entrenador" style="swimlane;whiteSpace=wrap;html=1;startSize=23;fontFamily=Verdana;" parent="1" vertex="1">
          <mxGeometry x="1160" y="1230" width="270" height="910" as="geometry" />
        </mxCell>
        <mxCell id="4dmCjVElnuUW6X6LacNj-30" value="Ingresar a &quot;Esgrimistas&quot;" style="rounded=1;whiteSpace=wrap;html=1;fontFamily=Verdana;" parent="4dmCjVElnuUW6X6LacNj-25" vertex="1">
          <mxGeometry x="75" y="97" width="120" height="60" as="geometry" />
        </mxCell>
        <mxCell id="4dmCjVElnuUW6X6LacNj-34" value="Seleccionar &quot;Grupos&quot; y escoger el grupo deseado" style="rounded=1;whiteSpace=wrap;html=1;fontFamily=Verdana;" parent="4dmCjVElnuUW6X6LacNj-25" vertex="1">
          <mxGeometry x="75" y="212" width="120" height="60" as="geometry" />
        </mxCell>
        <mxCell id="4dmCjVElnuUW6X6LacNj-36" value="Seleccionar &quot;Meso-ciclos&quot; y escoger el meso-ciclo deseado" style="rounded=1;whiteSpace=wrap;html=1;fontFamily=Verdana;" parent="4dmCjVElnuUW6X6LacNj-25" vertex="1">
          <mxGeometry x="62.5" y="332" width="145" height="60" as="geometry" />
        </mxCell>
        <mxCell id="4dmCjVElnuUW6X6LacNj-26" value="" style="group;fontFamily=Verdana;" parent="4dmCjVElnuUW6X6LacNj-25" vertex="1" connectable="0">
          <mxGeometry x="115" y="842" width="40" height="40" as="geometry" />
        </mxCell>
        <mxCell id="4dmCjVElnuUW6X6LacNj-27" value="" style="ellipse;whiteSpace=wrap;html=1;aspect=fixed;fontFamily=Verdana;" parent="4dmCjVElnuUW6X6LacNj-26" vertex="1">
          <mxGeometry width="40" height="40" as="geometry" />
        </mxCell>
        <mxCell id="4dmCjVElnuUW6X6LacNj-28" value="" style="ellipse;whiteSpace=wrap;html=1;aspect=fixed;fillColor=#000000;fontFamily=Verdana;" parent="4dmCjVElnuUW6X6LacNj-26" vertex="1">
          <mxGeometry x="10" y="10" width="20" height="20" as="geometry" />
        </mxCell>
        <mxCell id="pDBekJoFGcViPqroljIY-1" value="Seleccionar actividad del dia y llenar datos" style="rounded=1;whiteSpace=wrap;html=1;fontFamily=Verdana;" parent="4dmCjVElnuUW6X6LacNj-25" vertex="1">
          <mxGeometry x="75" y="452" width="120" height="60" as="geometry" />
        </mxCell>
        <mxCell id="pDBekJoFGcViPqroljIY-92" value="Seleccionar actividad y llenar datos" style="rounded=1;whiteSpace=wrap;html=1;fontFamily=Verdana;" parent="4dmCjVElnuUW6X6LacNj-25" vertex="1">
          <mxGeometry x="75" y="582" width="120" height="60" as="geometry" />
        </mxCell>
        <mxCell id="pDBekJoFGcViPqroljIY-96" style="edgeStyle=orthogonalEdgeStyle;rounded=0;orthogonalLoop=1;jettySize=auto;html=1;entryX=0.5;entryY=0;entryDx=0;entryDy=0;fontFamily=Verdana;" parent="4dmCjVElnuUW6X6LacNj-25" source="pDBekJoFGcViPqroljIY-98" target="4dmCjVElnuUW6X6LacNj-27" edge="1">
          <mxGeometry relative="1" as="geometry">
            <mxPoint x="135" y="762" as="sourcePoint" />
          </mxGeometry>
        </mxCell>
        <mxCell id="pDBekJoFGcViPqroljIY-100" value="No" style="edgeLabel;html=1;align=center;verticalAlign=middle;resizable=0;points=[];" parent="pDBekJoFGcViPqroljIY-96" vertex="1" connectable="0">
          <mxGeometry x="-0.2629" relative="1" as="geometry">
            <mxPoint as="offset" />
          </mxGeometry>
        </mxCell>
        <mxCell id="pDBekJoFGcViPqroljIY-101" style="edgeStyle=orthogonalEdgeStyle;rounded=0;orthogonalLoop=1;jettySize=auto;html=1;entryX=0;entryY=0.5;entryDx=0;entryDy=0;" parent="4dmCjVElnuUW6X6LacNj-25" source="pDBekJoFGcViPqroljIY-98" target="pDBekJoFGcViPqroljIY-1" edge="1">
          <mxGeometry relative="1" as="geometry">
            <Array as="points">
              <mxPoint x="35" y="742" />
              <mxPoint x="35" y="482" />
            </Array>
          </mxGeometry>
        </mxCell>
        <mxCell id="pDBekJoFGcViPqroljIY-102" value="Si" style="edgeLabel;html=1;align=center;verticalAlign=middle;resizable=0;points=[];" parent="pDBekJoFGcViPqroljIY-101" vertex="1" connectable="0">
          <mxGeometry y="1" relative="1" as="geometry">
            <mxPoint as="offset" />
          </mxGeometry>
        </mxCell>
        <mxCell id="pDBekJoFGcViPqroljIY-98" value="Llenar actividades &lt;br&gt;de otro dia" style="rhombus;whiteSpace=wrap;html=1;fontFamily=Verdana;" parent="4dmCjVElnuUW6X6LacNj-25" vertex="1">
          <mxGeometry x="55" y="692" width="160" height="100" as="geometry" />
        </mxCell>
        <mxCell id="4dmCjVElnuUW6X6LacNj-38" value="" style="ellipse;whiteSpace=wrap;html=1;aspect=fixed;fillColor=#000000;fontFamily=Verdana;" parent="4dmCjVElnuUW6X6LacNj-25" vertex="1">
          <mxGeometry x="125" y="30" width="20" height="20" as="geometry" />
        </mxCell>
        <mxCell id="4dmCjVElnuUW6X6LacNj-37" value="" style="edgeStyle=orthogonalEdgeStyle;rounded=0;orthogonalLoop=1;jettySize=auto;html=1;fontFamily=Verdana;" parent="4dmCjVElnuUW6X6LacNj-25" source="4dmCjVElnuUW6X6LacNj-38" target="4dmCjVElnuUW6X6LacNj-30" edge="1">
          <mxGeometry relative="1" as="geometry" />
        </mxCell>
        <mxCell id="SAoE8tBfLluj_xjVbVu3-1" value="App web" style="swimlane;whiteSpace=wrap;html=1;startSize=23;fontFamily=Verdana;" parent="1" vertex="1">
          <mxGeometry x="1430" y="1230" width="270" height="910" as="geometry" />
        </mxCell>
        <mxCell id="SAoE8tBfLluj_xjVbVu3-3" value="Mostrar opciones de esgrimistas" style="rounded=1;whiteSpace=wrap;html=1;fontFamily=Verdana;" parent="SAoE8tBfLluj_xjVbVu3-1" vertex="1">
          <mxGeometry x="75" y="97" width="120" height="60" as="geometry" />
        </mxCell>
        <mxCell id="SAoE8tBfLluj_xjVbVu3-5" value="Mostrar opciones del grupo" style="rounded=1;whiteSpace=wrap;html=1;fontFamily=Verdana;" parent="SAoE8tBfLluj_xjVbVu3-1" vertex="1">
          <mxGeometry x="75" y="212" width="120" height="60" as="geometry" />
        </mxCell>
        <mxCell id="SAoE8tBfLluj_xjVbVu3-7" value="Mostrar planificaciÃ³n del meso-ciclo" style="rounded=1;whiteSpace=wrap;html=1;fontFamily=Verdana;" parent="SAoE8tBfLluj_xjVbVu3-1" vertex="1">
          <mxGeometry x="62.5" y="332" width="145" height="60" as="geometry" />
        </mxCell>
        <mxCell id="SAoE8tBfLluj_xjVbVu3-27" value="Guardar datos" style="rounded=1;whiteSpace=wrap;html=1;fontFamily=Verdana;" parent="SAoE8tBfLluj_xjVbVu3-1" vertex="1">
          <mxGeometry x="75" y="452" width="120" height="60" as="geometry" />
        </mxCell>
        <mxCell id="SAoE8tBfLluj_xjVbVu3-30" value="Guardar datos" style="rounded=1;whiteSpace=wrap;html=1;fontFamily=Verdana;" parent="SAoE8tBfLluj_xjVbVu3-1" vertex="1">
          <mxGeometry x="75" y="582" width="120" height="60" as="geometry" />
        </mxCell>
        <mxCell id="SAoE8tBfLluj_xjVbVu3-20" style="edgeStyle=orthogonalEdgeStyle;rounded=0;orthogonalLoop=1;jettySize=auto;html=1;entryX=0;entryY=0.5;entryDx=0;entryDy=0;" parent="1" source="4dmCjVElnuUW6X6LacNj-30" target="SAoE8tBfLluj_xjVbVu3-3" edge="1">
          <mxGeometry relative="1" as="geometry" />
        </mxCell>
        <mxCell id="SAoE8tBfLluj_xjVbVu3-21" style="edgeStyle=orthogonalEdgeStyle;rounded=0;orthogonalLoop=1;jettySize=auto;html=1;" parent="1" source="SAoE8tBfLluj_xjVbVu3-3" target="4dmCjVElnuUW6X6LacNj-34" edge="1">
          <mxGeometry relative="1" as="geometry">
            <Array as="points">
              <mxPoint x="1565" y="1420" />
              <mxPoint x="1295" y="1420" />
            </Array>
          </mxGeometry>
        </mxCell>
        <mxCell id="SAoE8tBfLluj_xjVbVu3-22" style="edgeStyle=orthogonalEdgeStyle;rounded=0;orthogonalLoop=1;jettySize=auto;html=1;" parent="1" source="4dmCjVElnuUW6X6LacNj-34" target="SAoE8tBfLluj_xjVbVu3-5" edge="1">
          <mxGeometry relative="1" as="geometry" />
        </mxCell>
        <mxCell id="SAoE8tBfLluj_xjVbVu3-23" style="edgeStyle=orthogonalEdgeStyle;rounded=0;orthogonalLoop=1;jettySize=auto;html=1;entryX=0.5;entryY=0;entryDx=0;entryDy=0;" parent="1" source="SAoE8tBfLluj_xjVbVu3-5" target="4dmCjVElnuUW6X6LacNj-36" edge="1">
          <mxGeometry relative="1" as="geometry">
            <Array as="points">
              <mxPoint x="1565" y="1540" />
              <mxPoint x="1295" y="1540" />
            </Array>
          </mxGeometry>
        </mxCell>
        <mxCell id="SAoE8tBfLluj_xjVbVu3-24" style="edgeStyle=orthogonalEdgeStyle;rounded=0;orthogonalLoop=1;jettySize=auto;html=1;" parent="1" source="4dmCjVElnuUW6X6LacNj-36" target="SAoE8tBfLluj_xjVbVu3-7" edge="1">
          <mxGeometry relative="1" as="geometry" />
        </mxCell>
        <mxCell id="SAoE8tBfLluj_xjVbVu3-25" style="edgeStyle=orthogonalEdgeStyle;rounded=0;orthogonalLoop=1;jettySize=auto;html=1;entryX=0.5;entryY=0;entryDx=0;entryDy=0;" parent="1" source="SAoE8tBfLluj_xjVbVu3-7" target="pDBekJoFGcViPqroljIY-1" edge="1">
          <mxGeometry relative="1" as="geometry">
            <Array as="points">
              <mxPoint x="1565" y="1650" />
              <mxPoint x="1295" y="1650" />
            </Array>
          </mxGeometry>
        </mxCell>
        <mxCell id="SAoE8tBfLluj_xjVbVu3-28" style="edgeStyle=orthogonalEdgeStyle;rounded=0;orthogonalLoop=1;jettySize=auto;html=1;entryX=0;entryY=0.5;entryDx=0;entryDy=0;" parent="1" source="pDBekJoFGcViPqroljIY-1" target="SAoE8tBfLluj_xjVbVu3-27" edge="1">
          <mxGeometry relative="1" as="geometry" />
        </mxCell>
        <mxCell id="SAoE8tBfLluj_xjVbVu3-29" style="edgeStyle=orthogonalEdgeStyle;rounded=0;orthogonalLoop=1;jettySize=auto;html=1;" parent="1" source="SAoE8tBfLluj_xjVbVu3-27" target="pDBekJoFGcViPqroljIY-92" edge="1">
          <mxGeometry relative="1" as="geometry">
            <Array as="points">
              <mxPoint x="1565" y="1780" />
              <mxPoint x="1295" y="1780" />
            </Array>
          </mxGeometry>
        </mxCell>
        <mxCell id="SAoE8tBfLluj_xjVbVu3-31" style="edgeStyle=orthogonalEdgeStyle;rounded=0;orthogonalLoop=1;jettySize=auto;html=1;" parent="1" source="pDBekJoFGcViPqroljIY-92" target="SAoE8tBfLluj_xjVbVu3-30" edge="1">
          <mxGeometry relative="1" as="geometry" />
        </mxCell>
        <mxCell id="SAoE8tBfLluj_xjVbVu3-32" style="edgeStyle=orthogonalEdgeStyle;rounded=0;orthogonalLoop=1;jettySize=auto;html=1;entryX=1;entryY=0.5;entryDx=0;entryDy=0;" parent="1" source="SAoE8tBfLluj_xjVbVu3-30" target="pDBekJoFGcViPqroljIY-98" edge="1">
          <mxGeometry relative="1" as="geometry">
            <Array as="points">
              <mxPoint x="1565" y="1972" />
            </Array>
          </mxGeometry>
        </mxCell>
      </root>
    </mxGraphModel>
  </diagram>
</mxfile>
